<svg width="193" height="113" viewBox="0 0 193 113" fill="none" xmlns="http://www.w3.org/2000/svg">
<path d="M50.8301 48.1646C53.4442 47.8388 51.0345 29.5568 45.6862 28.9293C41.3885 28.4251 37.2413 25.8093 33.4696 29.5705C29.7567 33.273 27.6416 37.129 26.4682 42.394C24.2419 52.3843 25.1108 62.1064 25.1108 71.8882C25.1108 75.642 28.137 80.0937 31.5406 81.7908C33.6592 82.8471 35.5157 84.2065 37.9704 84.0705C39.9369 83.9616 43.053 80.3152 40.5424 84.0705" stroke="black" stroke-width="3" stroke-linecap="round"/>
<path d="M79.1212 41.7529C79.1212 38.2747 73.9281 28.2661 69.1193 33.0614C63.0729 39.0909 64.9757 48.4618 64.9757 56.1438C64.9757 63.9045 62.6384 75.7718 66.5474 82.7882C71.7126 92.0595 84.5677 81.0156 80.4072 78.9412" stroke="black" stroke-width="3" stroke-linecap="round"/>
<path d="M58.5459 2C38.0112 2 15.0427 14.9784 6.46453 33.9876C-1.84131 52.3932 1.91347 66.5139 13.8231 82.0758C20.3894 90.6558 24.5617 96.5149 33.4697 102.665C41.7781 108.401 53.9841 111 63.7612 111C81.0129 111 96.2055 100.03 103.555 84.6405C112.117 66.7104 109.929 40.558 95.1244 25.7948C89.0326 19.72 82.8748 13.6566 76.5494 7.69935C71.7405 3.17032 59.8286 2 54.6881 2" stroke="black" stroke-width="3" stroke-linecap="round"/>
<path d="M133.132 36.6235C130.821 36.9116 134.418 60.4733 134.418 63.5529C134.418 71.2589 135.704 94.3413 135.704 86.6353" stroke="black" stroke-width="3" stroke-linecap="round"/>
<path d="M129.274 40.4705C129.928 40.398 140.57 36.3277 140.847 35.9823C143.662 32.4733 152.255 40.0608 152.421 43.0352C152.679 47.6747 148.467 54.0887 144.705 56.5C137.025 61.4236 141.233 57.1411 147.277 57.1411C151.181 57.1411 156.917 62.0927 157.493 66.1176C158.433 72.6767 157.045 74.9004 152.707 79.2261C148.519 83.4022 147.856 87.4778 141.562 89.2712C138.655 90.0994 134.891 97.2317 138.275 90.4823" stroke="black" stroke-width="3" stroke-linecap="round"/>
<path d="M169.139 37.9058C170.786 39.7542 186.206 58.7869 186.856 58.1385C189.218 55.7835 189.543 46.278 189.714 43.0352C189.825 40.9406 191 30.5964 191 37.9058C191 46.9072 186.355 55.8833 185.856 64.8352C185.554 70.255 185.856 75.7878 185.856 81.2209C185.856 83.0095 185.856 93.9007 185.856 89.2" stroke="black" stroke-width="3" stroke-linecap="round"/>
</svg>
