<svg width="359" height="96" viewBox="0 0 359 96" fill="none" xmlns="http://www.w3.org/2000/svg">
<path d="M5.93033 52.2322C-3.38769 53.3978 5.76149 68.0833 13.7388 68.0833C21.6421 68.0833 22.9722 52.2322 14.9658 52.2322C8.36281 52.2322 9.46491 61.0321 13.9619 56.2508C15.1003 55.0404 15.3409 50.4462 12.8464 50.4462C9.68283 50.4462 10.3492 54.9544 11.5078 53.795C15.3569 49.9432 8.94462 55.2547 10.0577 59.1531C10.68 61.3328 13.7388 60.1719 13.7388 58.1484C13.7388 54.9394 8.83061 52.6897 8.83061 56.6973C8.83061 64.2216 12.643 60.2694 13.9619 60.2694" stroke="#F4737E" stroke-width="3" stroke-linecap="round"/>
<path d="M52.1117 46.2041C35.4075 48.0614 49.8954 68.3568 59.1393 61.1621C64.0696 57.3248 60.5636 51.8218 55.1235 54.2413C49.5981 56.6987 47.2574 70.4535 55.6812 67.8598C61.5992 66.0376 63.7803 54.6667 56.1274 54.2413C47.0946 53.7391 54.2449 59.484 51.8886 55.3575C46.4302 45.7987 43.1441 58.5656 46.9804 56.9203C50.4682 55.4245 48.2596 47.8858 46.088 52.232" stroke="#F4737E" stroke-width="3" stroke-linecap="round"/>
<path d="M96.2852 44.1949C90.143 44.1949 83.8989 45.7482 87.2497 53.1251C89.3518 57.753 99.923 61.079 98.1815 53.2367C95.81 42.5577 84.4609 51.9906 84.4609 59.153C84.4609 69.5014 98.0699 67.1128 98.0699 59.3762C98.0699 55.9467 87.9199 52.7912 91.8232 56.6972C93.1062 57.9811 90.4458 52.6911 88.6998 54.6879C87.8518 55.6578 90.2615 59.3945 90.2615 55.246C90.2615 52.2577 87.7584 51.3529 86.6919 54.6879C84.2563 62.3046 90.9604 55.5957 92.2694 56.2507" stroke="#F4737E" stroke-width="3" stroke-linecap="round"/>
<path d="M138.451 16.0648C138.451 24.8078 152.225 64.5694 152.506 64.2877" stroke="#F4737E" stroke-width="3" stroke-linecap="round"/>
<path d="M186.64 44.1949C172.292 48.1108 162.778 64.2878 183.516 64.2878C193.967 64.2878 195.305 46.2042 182.624 46.2042" stroke="#F4737E" stroke-width="3" stroke-linecap="round"/>
<path d="M224.79 40.1764C219.92 41.4229 209.422 43.6133 208.727 50.2228C208.235 54.8988 214.823 49.9271 215.643 49.1066C223.72 41.0239 222.973 53.0295 230.813 58.26" stroke="#F4737E" stroke-width="3" stroke-linecap="round"/>
<path d="M258.924 36.1578C252.899 36.1578 240.327 46.2447 248.885 51.7856C257.962 57.6631 262.006 53.577 260.82 44.0833C259.617 34.4469 255.133 25.1338 251.896 16.0649C250.741 12.8284 248.885 -3.86055 248.885 8.02778" stroke="#F4737E" stroke-width="3" stroke-linecap="round"/>
<path d="M272.979 32.1393C273.375 36.4948 276.572 61.5371 279.003 54.2415" stroke="#F4737E" stroke-width="3" stroke-linecap="round"/>
<path d="M260.932 2H262.94" stroke="#F4737E" stroke-width="3" stroke-linecap="round"/>
<path d="M283.019 30.1299C290.02 34.0221 291.05 60.8047 291.05 52.7902C291.05 47.0619 289.271 35.2361 293.504 30.5764C302.171 21.036 310.317 53.0451 311.129 52.2321" stroke="#F4737E" stroke-width="3" stroke-linecap="round"/>
<path d="M337.231 30.1299C333.992 30.1299 327.102 28.6086 325.63 32.5857C323.62 38.0171 322.093 44.1432 325.296 49.2182C330.045 56.743 336.235 56.8439 340.801 48.2135C342.813 44.4112 339.462 31.0741 339.462 35.3764C339.462 39.7332 345.251 45.7207 347.271 49.3298C352.266 58.2553 355.371 69.3844 356.864 79.4691C359.018 94.0156 334.837 97.5973 337.231 90.4086" stroke="#F4737E" stroke-width="3" stroke-linecap="round"/>
</svg>
