<svg width="85" height="88" viewBox="0 0 85 88" fill="none" xmlns="http://www.w3.org/2000/svg">
<g clip-path="url(#clip0_29_37)">
<path d="M42.5 87.3623C65.9721 87.3623 85 68.3344 85 44.8623C85 21.3902 65.9721 2.3623 42.5 2.3623C19.0279 2.3623 0 21.3902 0 44.8623C0 68.3344 19.0279 87.3623 42.5 87.3623Z" fill="#FBE949"/>
<path d="M22.4001 56.8238C22.4001 52.1638 26.7475 47.9113 27.5701 43.3872C29.0153 35.4385 30.454 28.5699 35.6268 22.1039C36.2375 21.3405 37.386 20.7718 37.5426 21.8677C37.8697 24.1575 40.2874 25.3736 41.7677 26.8539C43.3817 28.4679 44.8158 30.2382 46.2554 31.9976C47.619 33.6643 49.5195 34.749 50.743 36.6165C53.0338 40.113 55.0914 44.3169 57.8287 47.3762C59.086 48.7815 59.5586 51.3883 60.663 53.0448" stroke="black" stroke-width="3" stroke-linecap="round"/>
<path d="M40.8232 3.44483C31.1545 3.44483 22.4145 6.62477 15.1047 12.9974C10.7918 16.7574 7.92468 24.3021 5.63084 29.3995C3.65106 33.799 3.72338 38.058 4.8173 42.6524C5.79993 46.7795 7.11987 50.7148 8.46512 54.7506C9.0968 56.6456 9.31601 58.6619 10.3546 60.3929C11.6264 62.5126 13.2944 64.1661 14.7373 66.1665C17.0962 69.4368 19.9578 74.4165 23.4501 76.4801C29.7436 80.199 36.9515 82.5216 44.3136 81.6238C51.9219 80.696 59.8258 79.6798 65.9643 74.5643C70.6096 70.6933 74.7078 64.1471 77.8263 58.9495C79.1651 56.7182 79.0736 53.4551 79.7946 50.9716C80.7171 47.7941 81.3373 44.5984 81.9203 41.3402C82.8186 36.3202 79.9339 32.2212 77.4327 28.0086C72.5904 19.8533 69.1338 9.18449 59.5085 5.33435C55.3493 3.6707 51.3126 4.09963 47.0691 2.97245C44.4482 2.27627 42.1699 1.80379 39.4061 2.08017C36.7673 2.34404 34.9421 3.24913 32.3203 2.50007" stroke="black" stroke-width="3" stroke-linecap="round"/>
</g>
<defs>
<clipPath id="clip0_29_37">
<rect width="85" height="88" fill="white"/>
</clipPath>
</defs>
</svg>
