<svg width="76" height="94" viewBox="0 0 76 94" fill="none" xmlns="http://www.w3.org/2000/svg">
<path d="M56.6207 16.4495C59.3376 14.234 60.9694 10.839 61.7299 7.42783C62.1363 5.60517 63.6311 3.74133 63.8621 2.0148C63.9054 1.69107 68.3963 6.7699 69.0115 8.14957C69.6937 9.67945 74 12.3431 74 13.5626" stroke="#494848" stroke-width="3" stroke-linecap="round"/>
<path d="M8.77326 58.5596C8.77326 63.7488 9.64366 70.5316 8.20691 75.4862" stroke="#494848" stroke-width="3" stroke-linecap="round"/>
<path d="M2 62.2752C4.13814 63.3456 5.95356 64.9216 6.96552 67.2294" stroke="#494848" stroke-width="3" stroke-linecap="round"/>
<path d="M10.5197 56.4954C10.5197 57.978 9.75352 62.5694 10.6659 64.1654C11.9637 66.4357 14.2755 64.3269 14.9773 62.8871C16.297 60.1795 12.3687 55.5105 9.86206 57.1346" stroke="#494848" stroke-width="3" stroke-linecap="round"/>
<path d="M14.8276 56.367C15.7025 60.2378 19.8994 65.3464 22.4883 59.9051C23.6049 57.5582 19.7436 52.9473 19.0923 54.2441" stroke="#494848" stroke-width="3" stroke-linecap="round"/>
<path d="M16.0971 72.1835C13.1585 73.4882 10.1758 76.2721 12.1585 79.7812C13.6713 82.4587 15.2886 76.1548 15.4407 75.5397C15.9323 73.551 15.1305 72.8287 16.4618 74.1751C17.3918 75.1156 18.3101 75.5599 19.3793 74.839" stroke="#494848" stroke-width="3" stroke-linecap="round"/>
<path d="M18.5518 68.2502C19.0013 70.1922 19.3522 72.3441 21.3501 73.4097C21.7751 73.6364 20.6849 70.6695 20.6506 69.7244C20.6086 68.5701 21.3501 65.3014 21.3501 65.5968" stroke="#494848" stroke-width="3" stroke-linecap="round"/>
<path d="M28.4112 70.5321C26.2078 68.7705 25.0324 66.7331 25.8432 63.9481C26.1948 62.7406 26.1383 61.2089 27.3916 62.159C29.4901 63.7497 28.0998 65.822 27.0517 67.3117" stroke="#494848" stroke-width="3" stroke-linecap="round"/>
<path d="M26.8276 82.9174C28.7254 85.3835 31.1114 88.5077 31.5485 90.3871C32.6523 95.1332 31.2307 88.0463 30.8687 86.4899C30.4536 84.7053 31.1265 81.0159 33.0969 84.2165C33.9064 85.5314 35.7188 89.9082 36.3449 88.1137" stroke="#494848" stroke-width="3" stroke-linecap="round"/>
<path d="M40.4827 83.9756C38.5555 85.2429 36.2685 85.7052 35.6017 82.9789C35.3629 82.0029 35.6304 79.6182 36.403 78.8892C37.5961 77.7635 38.49 78.6581 38.8071 79.9546C39.2605 81.808 37.7498 81.7092 37.2044 82.7384" stroke="#494848" stroke-width="3" stroke-linecap="round"/>
<path d="M40.4828 77.1112C41.0226 78.9825 42.5518 84.4791 42.5518 82.4902C42.5518 81.0667 42.0345 79.8186 42.0345 78.4022C42.0345 77.7478 42.0345 73.3487 42.0345 75.8203" stroke="#494848" stroke-width="3" stroke-linecap="round"/>
<path d="M50 77.5901C44.9773 83.6303 43.1646 77.0761 44.7816 72.6872C45.7324 70.1065 47.0386 73.6703 47.1098 74.8747C47.2125 76.6108 46.3772 76.9301 45.6647 78.2689" stroke="#494848" stroke-width="3" stroke-linecap="round"/>
<path d="M24.3448 81.6789L26.8276 84.5688" stroke="#494848" stroke-width="3" stroke-linecap="round"/>
<path d="M40.069 57.3211C42.4863 55.5785 45.1675 55.0241 47.1205 52.8732C47.966 51.942 49.9632 50.1816 50.2056 49.1004C50.4072 48.201 52.7607 45.6909 53.4509 44.8114C54.9951 42.8434 57.7333 42.9053 59.3806 41.4357C62.4462 38.701 65.3104 31.0498 65.3104 26.9403C65.3104 24.7958 65.3104 22.6513 65.3104 20.5067C65.3104 19.5159 64.5892 14.4855 64.5892 17.29" stroke="#494848" stroke-width="3" stroke-linecap="round"/>
</svg>
